HIERARCHY
ROOT Hips
{
	OFFSET 0.000000 0.000000 0.000000
	CHANNELS 6 Xposition Yposition Zposition Xrotation Yrotation Zrotation
	JOINT LeftUpLeg_virtual
	{
		OFFSET 0.000000 0.000000 0.000000
		CHANNELS 3 Xrotation Yrotation Zrotation
		JOINT LeftUpLeg
		{
			OFFSET 10.205400 -3.823500 0.155100
			CHANNELS 3 Xrotation Yrotation Zrotation
			JOINT LeftLeg
			{
				OFFSET 0.708757 -12.982077 0.567790
				CHANNELS 3 Xrotation Yrotation Zrotation
				JOINT LeftFoot
				{
					OFFSET -0.708756 -10.717838 -2.184338
					CHANNELS 3 Xrotation Yrotation Zrotation
					JOINT LeftToeBase
					{
						OFFSET 0.108149 -7.191104 7.560241
						CHANNELS 3 Xrotation Yrotation Zrotation
						JOINT LeftToe_End
						{
							OFFSET 0.070230 0.081724 4.490308
							CHANNELS 3 Xrotation Yrotation Zrotation
							End Site
							{
								OFFSET 0 0 0
							}
						}
					}
				}
			}
		}
	}
	JOINT RightUpLeg_virtual
	{
		OFFSET 0.000000 0.000000 0.000000
		CHANNELS 3 Xrotation Yrotation Zrotation
		JOINT RightUpLeg
		{
			OFFSET -10.205400 -3.823500 0.005500
			CHANNELS 3 Xrotation Yrotation Zrotation
			JOINT RightLeg
			{
				OFFSET -0.708756 -12.982134 0.610632
				CHANNELS 3 Xrotation Yrotation Zrotation
				JOINT RightFoot
				{
					OFFSET 0.708754 -10.717769 -1.945823
					CHANNELS 3 Xrotation Yrotation Zrotation
					JOINT RightToeBase
					{
						OFFSET -0.108140 -7.191069 7.372968
						CHANNELS 3 Xrotation Yrotation Zrotation
						JOINT RightToe_End
						{
							OFFSET -0.070227 0.081735 4.479403
							CHANNELS 3 Xrotation Yrotation Zrotation
							End Site
							{
								OFFSET 0 0 0
							}
						}
					}
				}
			}
		}
	}
	JOINT Spine_virtual
	{
		OFFSET 0.000000 0.000000 0.000000
		CHANNELS 3 Xrotation Yrotation Zrotation
		JOINT Spine
		{
			OFFSET 0.000000 6.876099 0.125700
			CHANNELS 3 Xrotation Yrotation Zrotation
			JOINT Spine1
			{
				OFFSET 0.000000 5.730043 0.104720
				CHANNELS 3 Xrotation Yrotation Zrotation
				JOINT Spine1_split
				{
					OFFSET 0.000000 5.730043 0.104720
					CHANNELS 3 Xrotation Yrotation Zrotation
					JOINT Spine2
					{
						OFFSET 0.000000 5.730043 0.104720
						CHANNELS 3 Xrotation Yrotation Zrotation
						JOINT Neck_virtual
						{
							OFFSET 0.000000 0.000000 0.000000
							CHANNELS 3 Xrotation Yrotation Zrotation
							JOINT Neck
							{
								OFFSET 0.000000 10.314075 0.188496
								CHANNELS 3 Xrotation Yrotation Zrotation
								JOINT Head
								{
									OFFSET 0.000000 7.643700 -2.377400
									CHANNELS 3 Xrotation Yrotation Zrotation
									JOINT HeadTop_End
									{
										OFFSET 0.000000 43.788605 -13.619600
										CHANNELS 3 Xrotation Yrotation Zrotation
										End Site
										{
											OFFSET 0 0 0
										}
									}
								}
							}
						}
						JOINT LeftShoulder_virtual
						{
							OFFSET 0.000000 0.000000 0.000000
							CHANNELS 3 Xrotation Yrotation Zrotation
							JOINT LeftShoulder
							{
								OFFSET 2.196100 4.412489 0.087492
								CHANNELS 3 Xrotation Yrotation Zrotation
								JOINT LeftShoulder_split
								{
									OFFSET 2.196100 4.412489 0.087492
									CHANNELS 3 Xrotation Yrotation Zrotation
									JOINT LeftArm
									{
										OFFSET 8.771219 -2.981674 -0.026999
										CHANNELS 3 Xrotation Yrotation Zrotation
										JOINT LeftForeArm
										{
											OFFSET 8.512804 0.000000 -0.000000
											CHANNELS 3 Xrotation Yrotation Zrotation
											JOINT LeftHand
											{
												OFFSET 18.484802 0.000000 -0.000000
												CHANNELS 3 Xrotation Yrotation Zrotation
												End Site
												{
													OFFSET 0 0 0
												}
											}
										}
									}
								}
							}
						}
						JOINT RightShoulder_virtual
						{
							OFFSET 0.000000 0.000000 0.000000
							CHANNELS 3 Xrotation Yrotation Zrotation
							JOINT RightShoulder
							{
								OFFSET -2.196100 4.412496 0.070690
								CHANNELS 3 Xrotation Yrotation Zrotation
								JOINT RightShoulder_split
								{
									OFFSET -2.196100 4.412496 0.070690
									CHANNELS 3 Xrotation Yrotation Zrotation
									JOINT RightArm
									{
										OFFSET -8.771282 -2.981682 -0.094208
										CHANNELS 3 Xrotation Yrotation Zrotation
										JOINT RightForeArm
										{
											OFFSET -8.494598 0.000000 0.000000
											CHANNELS 3 Xrotation Yrotation Zrotation
											JOINT RightHand
											{
												OFFSET -18.483803 0.000000 0.000001
												CHANNELS 3 Xrotation Yrotation Zrotation
												End Site
												{
													OFFSET 0 0 0
												}
											}
										}
									}
								}
							}
						}
					}
				}
			}
		}
	}
}
MOTION
Frames: 7
Frame Time: 0.03333333
1.397796 30.067144 -8.627348 0.000000 0.000000 0.000000 0.485090 -42.090528 -0.224430 -45.657455 14.284338 44.627572 60.205426 3.107384 -2.152589 11.399557 5.177861 -25.436379 -16.066415 -2.529855 -7.423675 0.000000 0.000000 0.000000 1.466217 -41.312655 0.271418 -23.759079 -18.678792 -27.883475 37.721055 15.644132 0.750723 -17.552355 -11.494891 37.562093 7.086136 8.913609 -25.260567 0.000000 0.000000 0.000000 3.004941 -36.147540 0.082666 12.863767 0.944328 -4.548322 5.653231 0.533283 -2.928152 0.023313 -0.798093 0.206228 0.000000 0.000000 0.000000 8.048583 4.077519 -1.461110 -8.765402 3.554583 14.236787 -140.989817 -51.657356 -155.792722 0.000000 0.000000 0.000000 7.861657 1.197590 -1.614858 4.903976 1.777336 -9.988604 3.571216 -12.944384 -1.534152 18.497723 12.717037 -57.098882 -47.902552 -47.038481 -28.517187 0.000000 0.000000 0.000000 3.869615 -0.316732 -2.563442 -8.950428 9.611671 6.674691 -9.259532 -10.175620 4.095274 31.123219 16.123261 34.878337 -25.348710 44.395970 40.113240 0.000000 0.000000 0.000000 
1.389484 29.643496 -8.383738 0.000000 0.000000 0.000000 2.094669 -46.187214 1.589086 -43.151615 8.999894 40.032330 58.582246 1.497084 -0.322145 5.544279 3.744854 -27.011257 -14.560085 -2.532583 -6.236653 0.000000 0.000000 0.000000 3.364448 -45.933217 2.518131 -27.805796 -14.998262 -28.603120 39.994740 17.875261 -0.483117 -18.337101 -11.511351 39.489705 8.864091 9.339733 -26.640332 0.000000 0.000000 0.000000 3.114392 -40.911074 1.376895 12.576899 1.806733 -5.023283 4.816503 0.701582 -3.160284 0.025547 -0.395944 0.106491 0.000000 0.000000 0.000000 7.253871 4.108530 -2.242953 -3.977494 4.213986 12.084269 -132.319247 -59.266952 -147.127302 0.000000 0.000000 0.000000 6.550300 1.206344 -1.981897 4.705018 0.090034 -12.967766 4.200316 -12.468571 -2.200520 4.788381 19.498966 -51.259125 -33.087584 -44.953839 -16.603387 0.000000 0.000000 0.000000 2.591229 -0.110575 -2.462398 -7.592323 10.804587 4.800282 -6.975699 -9.620193 3.549685 27.230219 14.931482 38.717648 -18.772152 38.905454 31.774761 0.000000 0.000000 0.000000 
1.354532 29.289921 -8.001137 0.000000 0.000000 0.000000 3.948318 -50.041798 3.979709 -40.080059 6.308409 35.671705 55.129431 -0.163971 0.863035 -1.350738 3.779355 -28.316468 -10.312246 -2.757155 -4.246038 0.000000 0.000000 0.000000 5.284048 -49.965993 5.088172 -31.119168 -11.280357 -28.998736 42.055175 19.348194 -1.780792 -18.813896 -12.341075 39.962375 10.283844 9.342485 -26.827139 0.000000 0.000000 0.000000 2.911343 -44.965925 2.549224 12.864415 2.910534 -5.508134 4.363460 0.916059 -3.078724 0.063828 -0.165340 0.035682 0.000000 0.000000 0.000000 6.684619 4.295340 -2.647732 0.612811 5.410719 9.010001 -115.686998 -66.372227 -129.935278 0.000000 0.000000 0.000000 5.472957 1.257917 -2.088427 4.293803 -1.834718 -15.488806 4.570447 -11.307609 -2.487901 -7.884162 23.707532 -44.896145 -20.487545 -41.925754 -7.225819 0.000000 0.000000 0.000000 1.397120 0.193723 -2.079288 -6.028547 11.768649 2.837058 -4.612433 -8.803947 3.766955 24.486932 12.158317 41.908634 -14.542492 34.907915 25.827573 0.000000 0.000000 0.000000 
1.347527 28.986927 -7.459831 0.000000 0.000000 0.000000 5.756383 -53.275045 6.464358 -37.200974 5.325345 32.386223 51.413047 -1.946112 1.315728 -6.398091 4.568786 -29.666384 -5.414427 -2.841220 -2.164698 0.000000 0.000000 0.000000 6.771357 -52.826650 7.249024 -33.068497 -8.383268 -29.384990 43.394504 20.276672 -2.938088 -18.846963 -13.589664 39.895668 10.765427 9.220136 -26.024100 0.000000 0.000000 0.000000 2.328787 -47.785489 3.397717 13.657299 4.055925 -5.837238 4.235759 1.061536 -2.789687 0.121295 -0.109695 0.062146 0.000000 0.000000 0.000000 6.353445 4.542010 -2.692735 4.629071 6.822242 5.322027 -87.014807 -69.907840 -100.464358 0.000000 0.000000 0.000000 4.748072 1.289231 -1.999601 3.796170 -3.761618 -17.411093 4.987747 -10.289979 -2.203966 -18.700527 25.448448 -39.235588 -10.775262 -37.919895 -0.637466 0.000000 0.000000 0.000000 0.342441 0.452983 -1.560911 -4.422559 12.263979 1.176683 -2.458942 -7.060111 4.501933 23.017891 8.427477 43.848855 -11.948318 32.956506 21.514244 0.000000 0.000000 0.000000 
1.355368 28.746382 -6.893843 0.000000 0.000000 0.000000 7.059356 -55.487200 8.386230 -35.235689 5.680324 30.618116 48.365611 -3.320586 0.901064 -8.908567 5.657444 -30.427335 -1.566396 -2.753185 -0.642273 0.000000 0.000000 0.000000 7.458141 -54.247377 8.460059 -33.366512 -6.903665 -29.904996 43.262671 21.024803 -3.781023 -18.506186 -14.694225 40.187464 10.095442 9.227707 -24.646220 0.000000 0.000000 0.000000 1.446139 -49.583847 3.703680 14.672711 5.087865 -5.753012 4.280476 1.107451 -2.409715 0.161984 -0.136701 0.112357 0.000000 0.000000 0.000000 6.234906 4.714034 -2.473627 7.917866 8.190871 1.531024 -57.111733 -66.921483 -70.219187 0.000000 0.000000 0.000000 4.322559 1.284000 -1.814329 3.344681 -5.417679 -18.818882 5.336037 -9.925365 -1.593344 -26.944632 25.278880 -35.138216 -4.668784 -33.759084 2.994303 0.000000 0.000000 0.000000 -0.421939 0.606691 -1.006780 -2.950221 12.128975 0.425613 -0.815651 -4.264847 4.689224 22.386894 4.391564 44.939233 -10.444615 32.988588 18.311437 0.000000 0.000000 0.000000 
1.396197 28.578625 -6.344826 0.000000 0.000000 0.000000 7.655995 -56.562046 9.315762 -34.831274 6.578883 30.376314 46.659153 -4.685553 0.301270 -8.454219 6.097324 -31.752200 -0.079243 -2.554049 0.000011 0.000000 0.000000 0.000000 7.365464 -54.446067 8.554137 -32.099584 -6.890741 -30.507668 41.723556 21.862744 -4.366055 -18.077276 -15.375647 41.085859 8.750338 9.354218 -23.144596 0.000000 0.000000 0.000000 0.765696 -50.486450 3.680399 15.637197 5.880330 -5.192827 4.375165 1.028091 -2.069442 0.220546 -0.252146 0.138260 0.000000 0.000000 0.000000 6.221856 4.730964 -2.136975 10.231676 9.343473 -1.890671 -39.543968 -59.463408 -53.569122 0.000000 0.000000 0.000000 4.057863 1.231005 -1.606853 3.012739 -6.626391 -19.908045 5.371352 -9.992650 -1.225534 -32.871836 24.232393 -32.557531 -1.696384 -31.019892 4.321656 0.000000 0.000000 0.000000 -0.835672 0.604158 -0.509486 -1.715322 11.302048 0.706166 0.446549 -1.318048 4.470647 22.093186 0.323321 45.606525 -9.671861 34.532863 15.912498 0.000000 0.000000 0.000000 
1.432772 28.492331 -5.881191 0.000000 0.000000 0.000000 7.606070 -56.383031 9.211372 -35.559085 7.672189 30.943967 45.853724 -6.245751 -0.004500 -6.660516 5.487620 -33.198736 -1.432882 -2.423459 0.537679 0.000000 0.000000 0.000000 6.748217 -53.829691 7.818408 -29.746761 -8.278470 -31.091629 39.471137 22.633266 -4.702314 -17.812662 -15.635505 42.135280 7.617637 9.546683 -21.901490 0.000000 0.000000 0.000000 0.624142 -50.628869 3.653140 16.371087 6.397846 -4.214855 4.393894 0.826595 -1.811731 0.291206 -0.360282 0.074825 0.000000 0.000000 0.000000 6.215816 4.601921 -1.789876 11.553169 10.055870 -4.579575 -30.859765 -51.361137 -47.705788 0.000000 0.000000 0.000000 3.846915 1.117677 -1.431456 2.806179 -7.437339 -20.903635 5.123961 -10.499678 -0.720841 -36.668356 23.297668 -30.863118 -1.043176 -30.413726 4.134887 0.000000 0.000000 0.000000 -0.991459 0.497341 -0.134848 -0.699499 9.838263 1.912406 1.483714 1.211210 3.630610 21.771295 -3.398078 46.256288 -9.391481 36.859252 14.148243 0.000000 0.000000 0.000000 
